<svg xmlns="http://www.w3.org/2000/svg" xmlns:xlink="http://www.w3.org/1999/xlink" width="500" zoomAndPan="magnify" viewBox="0 0 375 374.999991" height="500" preserveAspectRatio="xMidYMid meet" version="1.0"><defs><g/><linearGradient x1="0" gradientTransform="matrix(0.75, 0, 0, 0.75, 0.0000045, 0)" y1="250" x2="499.999979" gradientUnits="userSpaceOnUse" y2="250" id="61e4828bc0"><stop stop-opacity="1" stop-color="rgb(0%, 0%, 0%)" offset="0"/><stop stop-opacity="1" stop-color="rgb(0.175476%, 0.175476%, 0.175476%)" offset="0.0078125"/><stop stop-opacity="1" stop-color="rgb(0.526428%, 0.526428%, 0.526428%)" offset="0.015625"/><stop stop-opacity="1" stop-color="rgb(0.878906%, 0.878906%, 0.878906%)" offset="0.0234375"/><stop stop-opacity="1" stop-color="rgb(1.231384%, 1.231384%, 1.231384%)" offset="0.03125"/><stop stop-opacity="1" stop-color="rgb(1.583862%, 1.583862%, 1.583862%)" offset="0.0390625"/><stop stop-opacity="1" stop-color="rgb(1.93634%, 1.93634%, 1.93634%)" offset="0.046875"/><stop stop-opacity="1" stop-color="rgb(2.288818%, 2.288818%, 2.288818%)" offset="0.0546875"/><stop stop-opacity="1" stop-color="rgb(2.641296%, 2.641296%, 2.641296%)" offset="0.0625"/><stop stop-opacity="1" stop-color="rgb(2.993774%, 2.993774%, 2.993774%)" offset="0.0703125"/><stop stop-opacity="1" stop-color="rgb(3.346252%, 3.346252%, 3.346252%)" offset="0.078125"/><stop stop-opacity="1" stop-color="rgb(3.69873%, 3.69873%, 3.69873%)" offset="0.0859375"/><stop stop-opacity="1" stop-color="rgb(4.051208%, 4.051208%, 4.051208%)" offset="0.09375"/><stop stop-opacity="1" stop-color="rgb(4.402161%, 4.402161%, 4.402161%)" offset="0.101562"/><stop stop-opacity="1" stop-color="rgb(4.754639%, 4.754639%, 4.754639%)" offset="0.109375"/><stop stop-opacity="1" stop-color="rgb(5.107117%, 5.107117%, 5.107117%)" offset="0.117188"/><stop stop-opacity="1" stop-color="rgb(5.459595%, 5.459595%, 5.459595%)" offset="0.125"/><stop stop-opacity="1" stop-color="rgb(5.812073%, 5.812073%, 5.812073%)" offset="0.132812"/><stop stop-opacity="1" stop-color="rgb(6.164551%, 6.164551%, 6.164551%)" offset="0.140625"/><stop stop-opacity="1" stop-color="rgb(6.517029%, 6.517029%, 6.517029%)" offset="0.148437"/><stop stop-opacity="1" stop-color="rgb(6.869507%, 6.869507%, 6.869507%)" offset="0.15625"/><stop stop-opacity="1" stop-color="rgb(7.221985%, 7.221985%, 7.221985%)" offset="0.164062"/><stop stop-opacity="1" stop-color="rgb(7.574463%, 7.574463%, 7.574463%)" offset="0.171875"/><stop stop-opacity="1" stop-color="rgb(7.926941%, 7.926941%, 7.926941%)" offset="0.179687"/><stop stop-opacity="1" stop-color="rgb(8.277893%, 8.277893%, 8.277893%)" offset="0.1875"/><stop stop-opacity="1" stop-color="rgb(8.630371%, 8.630371%, 8.630371%)" offset="0.195312"/><stop stop-opacity="1" stop-color="rgb(8.982849%, 8.982849%, 8.982849%)" offset="0.203125"/><stop stop-opacity="1" stop-color="rgb(9.335327%, 9.335327%, 9.335327%)" offset="0.210938"/><stop stop-opacity="1" stop-color="rgb(9.687805%, 9.687805%, 9.687805%)" offset="0.21875"/><stop stop-opacity="1" stop-color="rgb(10.040283%, 10.040283%, 10.040283%)" offset="0.226562"/><stop stop-opacity="1" stop-color="rgb(10.392761%, 10.392761%, 10.392761%)" offset="0.234375"/><stop stop-opacity="1" stop-color="rgb(10.745239%, 10.745239%, 10.745239%)" offset="0.242188"/><stop stop-opacity="1" stop-color="rgb(11.097717%, 11.097717%, 11.097717%)" offset="0.25"/><stop stop-opacity="1" stop-color="rgb(11.450195%, 11.450195%, 11.450195%)" offset="0.257812"/><stop stop-opacity="1" stop-color="rgb(11.802673%, 11.802673%, 11.802673%)" offset="0.265625"/><stop stop-opacity="1" stop-color="rgb(12.155151%, 12.155151%, 12.155151%)" offset="0.273437"/><stop stop-opacity="1" stop-color="rgb(12.506104%, 12.506104%, 12.506104%)" offset="0.28125"/><stop stop-opacity="1" stop-color="rgb(12.858582%, 12.858582%, 12.858582%)" offset="0.289062"/><stop stop-opacity="1" stop-color="rgb(13.21106%, 13.21106%, 13.21106%)" offset="0.296875"/><stop stop-opacity="1" stop-color="rgb(13.563538%, 13.563538%, 13.563538%)" offset="0.304687"/><stop stop-opacity="1" stop-color="rgb(13.916016%, 13.916016%, 13.916016%)" offset="0.3125"/><stop stop-opacity="1" stop-color="rgb(14.268494%, 14.268494%, 14.268494%)" offset="0.320312"/><stop stop-opacity="1" stop-color="rgb(14.620972%, 14.620972%, 14.620972%)" offset="0.328125"/><stop stop-opacity="1" stop-color="rgb(14.97345%, 14.97345%, 14.97345%)" offset="0.335937"/><stop stop-opacity="1" stop-color="rgb(15.325928%, 15.325928%, 15.325928%)" offset="0.34375"/><stop stop-opacity="1" stop-color="rgb(15.678406%, 15.678406%, 15.678406%)" offset="0.351562"/><stop stop-opacity="1" stop-color="rgb(16.030884%, 16.030884%, 16.030884%)" offset="0.359375"/><stop stop-opacity="1" stop-color="rgb(16.381836%, 16.381836%, 16.381836%)" offset="0.367187"/><stop stop-opacity="1" stop-color="rgb(16.734314%, 16.734314%, 16.734314%)" offset="0.375"/><stop stop-opacity="1" stop-color="rgb(17.086792%, 17.086792%, 17.086792%)" offset="0.382812"/><stop stop-opacity="1" stop-color="rgb(17.43927%, 17.43927%, 17.43927%)" offset="0.390625"/><stop stop-opacity="1" stop-color="rgb(17.791748%, 17.791748%, 17.791748%)" offset="0.398438"/><stop stop-opacity="1" stop-color="rgb(18.144226%, 18.144226%, 18.144226%)" offset="0.40625"/><stop stop-opacity="1" stop-color="rgb(18.496704%, 18.496704%, 18.496704%)" offset="0.414062"/><stop stop-opacity="1" stop-color="rgb(18.849182%, 18.849182%, 18.849182%)" offset="0.421875"/><stop stop-opacity="1" stop-color="rgb(19.20166%, 19.20166%, 19.20166%)" offset="0.429688"/><stop stop-opacity="1" stop-color="rgb(19.554138%, 19.554138%, 19.554138%)" offset="0.4375"/><stop stop-opacity="1" stop-color="rgb(19.906616%, 19.906616%, 19.906616%)" offset="0.445312"/><stop stop-opacity="1" stop-color="rgb(20.257568%, 20.257568%, 20.257568%)" offset="0.453125"/><stop stop-opacity="1" stop-color="rgb(20.610046%, 20.610046%, 20.610046%)" offset="0.460938"/><stop stop-opacity="1" stop-color="rgb(20.962524%, 20.962524%, 20.962524%)" offset="0.46875"/><stop stop-opacity="1" stop-color="rgb(21.315002%, 21.315002%, 21.315002%)" offset="0.476562"/><stop stop-opacity="1" stop-color="rgb(21.66748%, 21.66748%, 21.66748%)" offset="0.484375"/><stop stop-opacity="1" stop-color="rgb(22.019958%, 22.019958%, 22.019958%)" offset="0.492188"/><stop stop-opacity="1" stop-color="rgb(22.372437%, 22.372437%, 22.372437%)" offset="0.5"/><stop stop-opacity="1" stop-color="rgb(22.724915%, 22.724915%, 22.724915%)" offset="0.507812"/><stop stop-opacity="1" stop-color="rgb(23.077393%, 23.077393%, 23.077393%)" offset="0.515625"/><stop stop-opacity="1" stop-color="rgb(23.429871%, 23.429871%, 23.429871%)" offset="0.523437"/><stop stop-opacity="1" stop-color="rgb(23.782349%, 23.782349%, 23.782349%)" offset="0.53125"/><stop stop-opacity="1" stop-color="rgb(24.134827%, 24.134827%, 24.134827%)" offset="0.539062"/><stop stop-opacity="1" stop-color="rgb(24.485779%, 24.485779%, 24.485779%)" offset="0.546875"/><stop stop-opacity="1" stop-color="rgb(24.838257%, 24.838257%, 24.838257%)" offset="0.554687"/><stop stop-opacity="1" stop-color="rgb(25.190735%, 25.190735%, 25.190735%)" offset="0.5625"/><stop stop-opacity="1" stop-color="rgb(25.543213%, 25.543213%, 25.543213%)" offset="0.570312"/><stop stop-opacity="1" stop-color="rgb(25.895691%, 25.895691%, 25.895691%)" offset="0.578125"/><stop stop-opacity="1" stop-color="rgb(26.248169%, 26.248169%, 26.248169%)" offset="0.585937"/><stop stop-opacity="1" stop-color="rgb(26.600647%, 26.600647%, 26.600647%)" offset="0.59375"/><stop stop-opacity="1" stop-color="rgb(26.953125%, 26.953125%, 26.953125%)" offset="0.601562"/><stop stop-opacity="1" stop-color="rgb(27.305603%, 27.305603%, 27.305603%)" offset="0.609375"/><stop stop-opacity="1" stop-color="rgb(27.658081%, 27.658081%, 27.658081%)" offset="0.617187"/><stop stop-opacity="1" stop-color="rgb(28.010559%, 28.010559%, 28.010559%)" offset="0.625"/><stop stop-opacity="1" stop-color="rgb(28.361511%, 28.361511%, 28.361511%)" offset="0.632812"/><stop stop-opacity="1" stop-color="rgb(28.713989%, 28.713989%, 28.713989%)" offset="0.640625"/><stop stop-opacity="1" stop-color="rgb(29.066467%, 29.066467%, 29.066467%)" offset="0.648437"/><stop stop-opacity="1" stop-color="rgb(29.418945%, 29.418945%, 29.418945%)" offset="0.65625"/><stop stop-opacity="1" stop-color="rgb(29.771423%, 29.771423%, 29.771423%)" offset="0.664062"/><stop stop-opacity="1" stop-color="rgb(30.123901%, 30.123901%, 30.123901%)" offset="0.671875"/><stop stop-opacity="1" stop-color="rgb(30.476379%, 30.476379%, 30.476379%)" offset="0.679687"/><stop stop-opacity="1" stop-color="rgb(30.828857%, 30.828857%, 30.828857%)" offset="0.6875"/><stop stop-opacity="1" stop-color="rgb(31.181335%, 31.181335%, 31.181335%)" offset="0.695312"/><stop stop-opacity="1" stop-color="rgb(31.533813%, 31.533813%, 31.533813%)" offset="0.703125"/><stop stop-opacity="1" stop-color="rgb(31.886292%, 31.886292%, 31.886292%)" offset="0.710937"/><stop stop-opacity="1" stop-color="rgb(32.237244%, 32.237244%, 32.237244%)" offset="0.71875"/><stop stop-opacity="1" stop-color="rgb(32.589722%, 32.589722%, 32.589722%)" offset="0.726562"/><stop stop-opacity="1" stop-color="rgb(32.9422%, 32.9422%, 32.9422%)" offset="0.734375"/><stop stop-opacity="1" stop-color="rgb(33.294678%, 33.294678%, 33.294678%)" offset="0.742187"/><stop stop-opacity="1" stop-color="rgb(33.647156%, 33.647156%, 33.647156%)" offset="0.75"/><stop stop-opacity="1" stop-color="rgb(33.999634%, 33.999634%, 33.999634%)" offset="0.757812"/><stop stop-opacity="1" stop-color="rgb(34.352112%, 34.352112%, 34.352112%)" offset="0.765625"/><stop stop-opacity="1" stop-color="rgb(34.70459%, 34.70459%, 34.70459%)" offset="0.773438"/><stop stop-opacity="1" stop-color="rgb(35.057068%, 35.057068%, 35.057068%)" offset="0.78125"/><stop stop-opacity="1" stop-color="rgb(35.409546%, 35.409546%, 35.409546%)" offset="0.789062"/><stop stop-opacity="1" stop-color="rgb(35.762024%, 35.762024%, 35.762024%)" offset="0.796875"/><stop stop-opacity="1" stop-color="rgb(36.114502%, 36.114502%, 36.114502%)" offset="0.804688"/><stop stop-opacity="1" stop-color="rgb(36.465454%, 36.465454%, 36.465454%)" offset="0.8125"/><stop stop-opacity="1" stop-color="rgb(36.817932%, 36.817932%, 36.817932%)" offset="0.820312"/><stop stop-opacity="1" stop-color="rgb(37.17041%, 37.17041%, 37.17041%)" offset="0.828125"/><stop stop-opacity="1" stop-color="rgb(37.522888%, 37.522888%, 37.522888%)" offset="0.835938"/><stop stop-opacity="1" stop-color="rgb(37.875366%, 37.875366%, 37.875366%)" offset="0.84375"/><stop stop-opacity="1" stop-color="rgb(38.227844%, 38.227844%, 38.227844%)" offset="0.851562"/><stop stop-opacity="1" stop-color="rgb(38.580322%, 38.580322%, 38.580322%)" offset="0.859375"/><stop stop-opacity="1" stop-color="rgb(38.9328%, 38.9328%, 38.9328%)" offset="0.867188"/><stop stop-opacity="1" stop-color="rgb(39.285278%, 39.285278%, 39.285278%)" offset="0.875"/><stop stop-opacity="1" stop-color="rgb(39.637756%, 39.637756%, 39.637756%)" offset="0.882812"/><stop stop-opacity="1" stop-color="rgb(39.990234%, 39.990234%, 39.990234%)" offset="0.890625"/><stop stop-opacity="1" stop-color="rgb(40.341187%, 40.341187%, 40.341187%)" offset="0.898438"/><stop stop-opacity="1" stop-color="rgb(40.693665%, 40.693665%, 40.693665%)" offset="0.90625"/><stop stop-opacity="1" stop-color="rgb(41.046143%, 41.046143%, 41.046143%)" offset="0.914062"/><stop stop-opacity="1" stop-color="rgb(41.398621%, 41.398621%, 41.398621%)" offset="0.921875"/><stop stop-opacity="1" stop-color="rgb(41.751099%, 41.751099%, 41.751099%)" offset="0.929688"/><stop stop-opacity="1" stop-color="rgb(42.103577%, 42.103577%, 42.103577%)" offset="0.9375"/><stop stop-opacity="1" stop-color="rgb(42.456055%, 42.456055%, 42.456055%)" offset="0.945312"/><stop stop-opacity="1" stop-color="rgb(42.808533%, 42.808533%, 42.808533%)" offset="0.953125"/><stop stop-opacity="1" stop-color="rgb(43.161011%, 43.161011%, 43.161011%)" offset="0.960938"/><stop stop-opacity="1" stop-color="rgb(43.513489%, 43.513489%, 43.513489%)" offset="0.96875"/><stop stop-opacity="1" stop-color="rgb(43.865967%, 43.865967%, 43.865967%)" offset="0.976562"/><stop stop-opacity="1" stop-color="rgb(44.216919%, 44.216919%, 44.216919%)" offset="0.984375"/><stop stop-opacity="1" stop-color="rgb(44.569397%, 44.569397%, 44.569397%)" offset="0.992188"/><stop stop-opacity="1" stop-color="rgb(44.921875%, 44.921875%, 44.921875%)" offset="1"/></linearGradient></defs><rect x="-37.5" width="450" fill="#ffffff" y="-37.499999" height="449.999989" fill-opacity="1"/><rect x="-37.5" fill="url(#61e4828bc0)" width="450" y="-37.499999" height="449.999989"/><path stroke-linecap="butt" transform="matrix(0.75, 0, 0, 0.75, 32.234545, 66.8912)" fill="none" stroke-linejoin="miter" d="M 105.343531 111.999241 L 105.343531 110.514866 C 107.098739 109.978408 108.301864 108.827366 108.952906 107.077366 C 109.609156 105.322157 109.932073 102.113824 109.932073 97.452365 L 109.932073 50.921112 C 109.932073 46.556529 109.661239 43.171112 109.119573 40.764862 C 108.583114 38.358611 107.796656 36.624236 106.770614 35.561736 C 105.744572 34.499236 104.468531 33.733611 102.93728 33.270069 L 102.93728 31.785694 L 116.78624 31.785694 L 146.6977 81.165906 L 176.04666 31.785694 L 188.999786 31.785694 L 188.999786 33.270069 C 187.473744 33.733611 186.182078 34.499236 185.140411 35.561736 C 184.114369 36.624236 183.327911 38.358611 182.791452 40.764862 C 182.265411 43.171112 182.004994 46.556529 182.004994 50.921112 L 182.004994 97.452365 C 182.004994 102.113824 182.333119 105.322157 182.984161 107.077366 C 183.640411 108.827366 184.843536 109.978408 186.593536 110.514866 L 186.593536 111.999241 L 168.01541 111.999241 L 168.01541 110.514866 C 169.786243 109.978408 170.989368 108.827366 171.624785 107.077366 C 172.281035 105.322157 172.603952 102.113824 172.603952 97.452365 L 172.603952 41.072153 L 143.5102 90.233615 L 141.327908 90.233615 L 111.973739 41.967987 L 111.973739 92.863823 C 111.973739 97.207574 112.286239 100.566949 112.900823 102.936741 C 113.515406 105.301324 114.390406 107.046116 115.531031 108.165908 C 116.687281 109.264866 118.103948 110.051324 119.781032 110.514866 L 119.781032 111.999241 Z M 207.676871 112.811741 C 206.072704 112.811741 204.676871 112.207575 203.484162 110.994033 C 202.307079 109.759658 201.718537 108.296116 201.718537 106.598199 C 201.718537 104.921116 202.307079 103.494032 203.484162 102.316949 C 204.676871 101.12424 206.072704 100.53049 207.676871 100.53049 C 209.281037 100.53049 210.656038 101.12424 211.791454 102.316949 C 212.947704 103.494032 213.525829 104.921116 213.525829 106.598199 C 213.525829 108.296116 212.947704 109.759658 211.791454 110.994033 C 210.656038 112.207575 209.281037 112.811741 207.676871 112.811741 Z M 226.124789 111.999241 L 226.124789 110.514866 C 227.879997 109.978408 229.083122 108.827366 229.734164 107.077366 C 230.390414 105.322157 230.713331 102.113824 230.713331 97.452365 L 230.713331 50.921112 C 230.713331 46.556529 230.442497 43.171112 229.906039 40.764862 C 229.364372 38.358611 228.577914 36.624236 227.551872 35.561736 C 226.52583 34.499236 225.249789 33.733611 223.718538 33.270069 L 223.718538 31.785694 L 237.567498 31.785694 L 267.478958 81.165906 L 296.827918 31.785694 L 309.781044 31.785694 L 309.781044 33.270069 C 308.255002 33.733611 306.968544 34.499236 305.921669 35.561736 C 304.895627 36.624236 304.114377 38.358611 303.57271 40.764862 C 303.046669 43.171112 302.786252 46.556529 302.786252 50.921112 L 302.786252 97.452365 C 302.786252 102.113824 303.114377 105.322157 303.765419 107.077366 C 304.421669 108.827366 305.624794 109.978408 307.374794 110.514866 L 307.374794 111.999241 L 288.796668 111.999241 L 288.796668 110.514866 C 290.572709 109.978408 291.775835 108.827366 292.406043 107.077366 C 293.062293 105.322157 293.38521 102.113824 293.38521 97.452365 L 293.38521 41.072153 L 264.291458 90.233615 L 262.109166 90.233615 L 232.760206 41.967987 L 232.760206 92.863823 C 232.760206 97.207574 233.067497 100.566949 233.682081 102.936741 C 234.296664 105.301324 235.171664 107.046116 236.312289 108.165908 C 237.468539 109.264866 238.885206 110.051324 240.56229 110.514866 L 240.56229 111.999241 Z M 328.458129 112.811741 C 326.85917 112.811741 325.458128 112.207575 324.26542 110.994033 C 323.088337 109.759658 322.499795 108.296116 322.499795 106.598199 C 322.499795 104.921116 323.088337 103.494032 324.26542 102.316949 C 325.458128 101.12424 326.85917 100.53049 328.458129 100.53049 C 330.062295 100.53049 331.437295 101.12424 332.572712 102.316949 C 333.728962 103.494032 334.307087 104.921116 334.307087 106.598199 C 334.307087 108.296116 333.728962 109.759658 332.572712 110.994033 C 331.437295 112.207575 330.062295 112.811741 328.458129 112.811741 Z M 328.458129 112.811741 " stroke="#000000" stroke-width="3.43818" stroke-opacity="1" stroke-miterlimit="4"/><g fill="#ffe0e9" fill-opacity="1"><g transform="translate(106.941571, 150.891194)"><g><path d="M 4.296875 0 L 4.296875 -1.125 C 5.617188 -1.519531 6.519531 -2.375 7 -3.6875 C 7.488281 -5.007812 7.734375 -7.421875 7.734375 -10.921875 L 7.734375 -45.8125 C 7.734375 -49.082031 7.53125 -51.617188 7.125 -53.421875 C 6.726562 -55.222656 6.144531 -56.523438 5.375 -57.328125 C 4.601562 -58.128906 3.644531 -58.703125 2.5 -59.046875 L 2.5 -60.171875 L 12.890625 -60.171875 L 35.328125 -23.125 L 57.328125 -60.171875 L 67.046875 -60.171875 L 67.046875 -59.046875 C 65.898438 -58.703125 64.9375 -58.128906 64.15625 -57.328125 C 63.382812 -56.523438 62.796875 -55.222656 62.390625 -53.421875 C 61.992188 -51.617188 61.796875 -49.082031 61.796875 -45.8125 L 61.796875 -10.921875 C 61.796875 -7.421875 62.039062 -5.007812 62.53125 -3.6875 C 63.019531 -2.375 63.921875 -1.519531 65.234375 -1.125 L 65.234375 0 L 51.3125 0 L 51.3125 -1.125 C 52.632812 -1.519531 53.535156 -2.375 54.015625 -3.6875 C 54.503906 -5.007812 54.75 -7.421875 54.75 -10.921875 L 54.75 -53.203125 L 32.921875 -16.328125 L 31.28125 -16.328125 L 9.28125 -52.515625 L 9.28125 -14.359375 C 9.28125 -11.085938 9.507812 -8.5625 9.96875 -6.78125 C 10.425781 -5.007812 11.082031 -3.707031 11.9375 -2.875 C 12.800781 -2.050781 13.863281 -1.46875 15.125 -1.125 L 15.125 0 Z M 4.296875 0 "/></g></g></g><g fill="#ffe0e9" fill-opacity="1"><g transform="translate(178.362118, 150.891194)"><g><path d="M 9.625 0.609375 C 8.425781 0.609375 7.378906 0.148438 6.484375 -0.765625 C 5.597656 -1.691406 5.15625 -2.785156 5.15625 -4.046875 C 5.15625 -5.304688 5.597656 -6.378906 6.484375 -7.265625 C 7.378906 -8.148438 8.425781 -8.59375 9.625 -8.59375 C 10.832031 -8.59375 11.863281 -8.148438 12.71875 -7.265625 C 13.582031 -6.378906 14.015625 -5.304688 14.015625 -4.046875 C 14.015625 -2.785156 13.582031 -1.691406 12.71875 -0.765625 C 11.863281 0.148438 10.832031 0.609375 9.625 0.609375 Z M 9.625 0.609375 "/></g></g></g><g fill="#ffe0e9" fill-opacity="1"><g transform="translate(197.527915, 150.891194)"><g><path d="M 4.296875 0 L 4.296875 -1.125 C 5.617188 -1.519531 6.519531 -2.375 7 -3.6875 C 7.488281 -5.007812 7.734375 -7.421875 7.734375 -10.921875 L 7.734375 -45.8125 C 7.734375 -49.082031 7.53125 -51.617188 7.125 -53.421875 C 6.726562 -55.222656 6.144531 -56.523438 5.375 -57.328125 C 4.601562 -58.128906 3.644531 -58.703125 2.5 -59.046875 L 2.5 -60.171875 L 12.890625 -60.171875 L 35.328125 -23.125 L 57.328125 -60.171875 L 67.046875 -60.171875 L 67.046875 -59.046875 C 65.898438 -58.703125 64.9375 -58.128906 64.15625 -57.328125 C 63.382812 -56.523438 62.796875 -55.222656 62.390625 -53.421875 C 61.992188 -51.617188 61.796875 -49.082031 61.796875 -45.8125 L 61.796875 -10.921875 C 61.796875 -7.421875 62.039062 -5.007812 62.53125 -3.6875 C 63.019531 -2.375 63.921875 -1.519531 65.234375 -1.125 L 65.234375 0 L 51.3125 0 L 51.3125 -1.125 C 52.632812 -1.519531 53.535156 -2.375 54.015625 -3.6875 C 54.503906 -5.007812 54.75 -7.421875 54.75 -10.921875 L 54.75 -53.203125 L 32.921875 -16.328125 L 31.28125 -16.328125 L 9.28125 -52.515625 L 9.28125 -14.359375 C 9.28125 -11.085938 9.507812 -8.5625 9.96875 -6.78125 C 10.425781 -5.007812 11.082031 -3.707031 11.9375 -2.875 C 12.800781 -2.050781 13.863281 -1.46875 15.125 -1.125 L 15.125 0 Z M 4.296875 0 "/></g></g></g><g fill="#ffe0e9" fill-opacity="1"><g transform="translate(268.948462, 150.891194)"><g><path d="M 9.625 0.609375 C 8.425781 0.609375 7.378906 0.148438 6.484375 -0.765625 C 5.597656 -1.691406 5.15625 -2.785156 5.15625 -4.046875 C 5.15625 -5.304688 5.597656 -6.378906 6.484375 -7.265625 C 7.378906 -8.148438 8.425781 -8.59375 9.625 -8.59375 C 10.832031 -8.59375 11.863281 -8.148438 12.71875 -7.265625 C 13.582031 -6.378906 14.015625 -5.304688 14.015625 -4.046875 C 14.015625 -2.785156 13.582031 -1.691406 12.71875 -0.765625 C 11.863281 0.148438 10.832031 0.609375 9.625 0.609375 Z M 9.625 0.609375 "/></g></g></g><path stroke-linecap="butt" transform="matrix(0.75, 0, 0, 0.75, 93.969973, 122.900207)" fill="none" stroke-linejoin="miter" d="M 198.196299 40.22681 C 198.477549 40.367435 198.654633 40.586185 198.727549 40.893477 C 198.795258 41.19556 198.743174 41.487227 198.571299 41.773685 C 197.576508 43.403893 196.519216 45.028893 195.399424 46.648685 C 194.284841 48.25806 193.029632 49.700769 191.644216 50.971602 C 191.081716 51.476811 190.482757 51.971602 189.842132 52.466394 L 190.737966 55.284102 L 191.165049 56.508061 C 191.232757 56.789311 191.201507 57.075769 191.060882 57.362228 C 190.925466 57.648686 190.711924 57.846603 190.425466 57.945561 C 190.139007 58.018478 189.852549 57.982019 189.56609 57.846603 C 189.290049 57.695561 189.09734 57.487228 188.982757 57.205978 L 188.618174 55.971603 L 187.868174 53.685144 C 185.665049 54.789311 183.326507 55.320561 180.852548 55.284102 C 178.571298 55.284102 176.748381 54.622644 175.383798 53.299727 C 174.024423 51.961186 173.342131 50.16431 173.342131 47.893477 C 173.378589 46.336185 173.722339 44.877852 174.383798 43.528893 C 175.040048 42.174727 176.055673 40.815352 177.435881 39.435143 C 178.821298 38.049726 180.62859 36.554935 182.862965 34.955976 C 182.69109 33.898684 182.540048 32.872643 182.40984 31.877851 C 182.290048 30.877851 182.227548 29.976809 182.227548 29.159101 C 182.227548 26.820559 182.857757 24.867434 184.112965 23.289309 C 185.37859 21.705975 187.019215 20.9091 189.03484 20.9091 C 190.456716 20.9091 191.680674 21.330975 192.711924 22.169517 C 193.743174 23.00285 194.258799 24.148684 194.258799 25.601809 C 194.258799 26.737226 193.961924 27.810142 193.373382 28.820559 C 192.795257 29.825767 191.852549 30.898684 190.555674 32.034101 C 189.264007 33.164309 187.519215 34.497643 185.321299 36.018476 C 185.779632 38.28931 186.352549 40.674726 187.045257 43.179935 C 187.737965 45.679935 188.425465 48.013269 189.102549 50.179935 C 189.274424 50.03931 189.446299 49.903894 189.618174 49.763269 C 189.800465 49.617435 189.977549 49.471602 190.154632 49.32056 C 191.399424 48.117435 192.555674 46.752852 193.623382 45.232018 C 194.685882 43.705977 195.696299 42.16431 196.649424 40.607018 C 196.831716 40.32056 197.066091 40.143476 197.362966 40.07056 C 197.665049 39.992435 197.941091 40.044518 198.196299 40.22681 Z M 184.514007 29.263267 C 184.514007 29.872642 184.540048 30.544517 184.592132 31.289309 C 184.654632 32.034101 184.75359 32.867434 184.889007 33.784101 C 185.920257 33.075768 186.987965 32.268476 188.086924 31.367434 C 189.185882 30.466392 190.118174 29.518476 190.878591 28.523684 C 191.644216 27.528892 192.024424 26.554934 192.024424 25.601809 C 192.024424 24.857017 191.727549 24.263267 191.139007 23.820559 C 190.560882 23.372642 189.857757 23.143475 189.03484 23.143475 C 187.581715 23.143475 186.461924 23.742434 185.685882 24.94035 C 184.904632 26.122642 184.514007 27.565351 184.514007 29.263267 Z M 187.175465 51.502852 C 186.50359 49.419519 185.81609 47.138269 185.123382 44.669518 C 184.430673 42.200768 183.836923 39.784101 183.34734 37.409101 C 180.550465 39.461185 178.560881 41.278893 177.383798 42.867435 C 176.211923 44.440352 175.612965 46.117435 175.576506 47.893477 C 175.576506 49.591394 176.060881 50.877852 177.029631 51.752852 C 178.008798 52.617436 179.28484 53.049727 180.852548 53.049727 C 183.118173 53.049727 185.227549 52.534102 187.175465 51.502852 Z M 232.987968 45.284102 C 233.659843 45.60181 233.873385 46.10181 233.623385 46.773685 C 231.706718 51.383061 229.383801 55.013269 226.644218 57.664311 C 223.920259 60.304936 220.482759 61.622645 216.331717 61.622645 C 212.894217 61.622645 210.279634 60.627853 208.487967 58.638269 C 206.691092 56.653894 205.795258 54.013269 205.795258 50.711185 C 205.795258 49.075769 206.0088 47.346602 206.430675 45.528893 C 206.857758 43.700768 207.389008 41.78931 208.029633 39.799726 C 205.336925 39.159101 203.170258 37.94556 201.534841 36.16431 C 199.909841 34.367434 199.092133 32.122643 199.092133 29.419517 C 199.092133 27.617434 199.441091 25.794517 200.1338 23.950767 C 200.826508 22.107017 201.7588 20.4716 202.925466 19.054933 C 203.1338 18.804933 203.41505 18.674725 203.769216 18.674725 C 204.055675 18.674725 204.310883 18.778892 204.534841 18.976808 C 204.769216 19.164308 204.889008 19.44035 204.889008 19.794517 C 204.889008 20.112225 204.800466 20.362225 204.628591 20.5341 C 203.66505 21.601809 202.873383 22.966392 202.248383 24.638267 C 201.6338 26.304934 201.326508 27.862226 201.326508 29.315351 C 201.326508 31.695559 202.029633 33.565351 203.430675 34.914309 C 204.836925 36.25806 206.639008 37.174726 208.836925 37.669518 C 209.581717 35.549726 210.514009 33.367434 211.628592 31.133059 C 212.748384 28.893476 214.019217 26.830976 215.446301 24.950767 C 216.883801 23.070559 218.451509 21.56535 220.139009 20.429934 C 221.826509 19.294517 223.612968 18.747642 225.487968 18.778892 C 227.691093 18.81535 229.342135 19.544517 230.441093 20.961184 C 231.540052 22.383059 232.092135 24.143475 232.092135 26.237226 C 232.092135 28.471601 231.508802 30.461184 230.347343 32.200768 C 229.196301 33.929934 227.665051 35.414309 225.748385 36.643476 C 223.836926 37.862226 221.737968 38.78931 219.451509 39.409101 C 217.165051 40.023685 214.8838 40.330976 212.60255 40.330976 C 212.211925 40.330976 211.842134 40.315351 211.487967 40.278893 C 211.1338 40.247643 210.722342 40.211185 210.264009 40.174726 C 209.670258 42.127852 209.144217 43.97681 208.691092 45.737227 C 208.253592 47.492435 208.029633 49.153894 208.029633 50.711185 C 208.029633 53.554936 208.769217 55.711186 210.237967 57.179936 C 211.711925 58.643478 213.743175 59.377853 216.331717 59.377853 C 220.019217 59.377853 223.045259 58.190353 225.399426 55.815352 C 227.76401 53.445561 229.816093 50.143477 231.555677 45.919519 C 231.659843 45.63306 231.85776 45.429935 232.154635 45.310143 C 232.456718 45.185143 232.73276 45.179935 232.987968 45.284102 Z M 211.0713 38.044518 C 211.279634 38.080976 211.493175 38.096601 211.722342 38.096601 C 211.956717 38.096601 212.1963 38.096601 212.4463 38.096601 C 214.430675 38.096601 216.430676 37.836185 218.451509 37.304935 C 220.477551 36.768476 222.357759 35.997643 224.102551 34.992434 C 225.842135 33.982018 227.23276 32.737226 228.269218 31.263268 C 229.316093 29.794517 229.842135 28.117434 229.842135 26.237226 C 229.842135 24.711184 229.477551 23.461184 228.753593 22.482017 C 228.034843 21.50285 226.946301 21.013267 225.487968 21.013267 C 223.925468 21.013267 222.404634 21.56535 220.930676 22.664309 C 219.456717 23.763267 218.092134 25.174725 216.836926 26.898684 C 215.581717 28.622642 214.467134 30.466392 213.487967 32.435143 C 212.5088 34.398684 211.701509 36.268476 211.0713 38.044518 Z M 253.36297 46.773685 C 252.196303 49.471602 250.961928 51.450769 249.659844 52.711186 C 248.373386 53.966394 246.925469 54.596602 245.321302 54.596602 C 243.800469 54.596602 242.451511 54.117436 241.284844 53.153894 C 240.284844 54.471602 239.154635 55.612227 237.878594 56.570561 C 236.60776 57.523686 235.331718 57.997644 234.04526 57.997644 C 232.305677 57.997644 231.097343 57.487228 230.425468 56.455978 C 229.753593 55.424727 229.42026 54.148686 229.42026 52.622644 C 229.42026 50.57056 229.680676 48.648685 230.191093 46.85181 C 230.70151 45.060143 231.310885 43.44556 232.019218 42.00806 C 232.73276 40.57056 233.373385 39.377851 233.941093 38.424726 C 236.175469 34.700768 238.675469 32.836184 241.441094 32.836184 C 243.211927 32.872643 244.545261 33.429934 245.425469 34.513268 C 246.321303 35.596601 246.764011 36.935143 246.764011 38.528893 C 246.764011 39.627851 246.586928 40.903893 246.232761 42.357018 C 245.878594 43.815352 245.389011 45.310143 244.764011 46.85181 C 244.149427 48.393477 243.435886 49.857019 242.623386 51.242436 C 243.217136 51.987227 244.118177 52.362227 245.321302 52.362227 C 246.456719 52.362227 247.503594 51.836186 248.467136 50.78931 C 249.430678 49.742435 250.368178 48.117435 251.284845 45.919519 C 251.467136 45.461185 251.805678 45.232018 252.30047 45.232018 C 252.691095 45.232018 253.003595 45.388268 253.248386 45.711185 C 253.498386 46.028894 253.540053 46.388269 253.36297 46.773685 Z M 241.024427 45.232018 C 241.415052 45.232018 241.711927 45.372643 241.920261 45.659102 C 242.133802 45.935144 242.191094 46.273685 242.086927 46.669519 C 242.008802 46.877852 241.961927 47.091394 241.946302 47.310144 C 241.930677 47.518477 241.904636 47.711185 241.868177 47.893477 C 242.680677 46.221602 243.326511 44.53931 243.805677 42.841393 C 244.290052 41.13306 244.529636 39.679935 244.529636 38.47681 C 244.529636 37.341393 244.237969 36.492435 243.649427 35.929935 C 243.066094 35.357018 242.316094 35.070559 241.389011 35.070559 C 240.399427 35.070559 239.435885 35.487226 238.487969 36.32056 C 237.555677 37.148685 236.691094 38.242435 235.904635 39.591393 C 235.446302 40.336185 234.88901 41.377852 234.227552 42.711185 C 233.581718 44.034102 232.993177 45.53931 232.477552 47.232019 C 231.961927 48.909102 231.706718 50.674727 231.706718 52.518477 C 231.706718 53.476811 231.88901 54.263269 232.243177 54.867436 C 232.597343 55.466394 233.196302 55.763269 234.04526 55.763269 C 235.04526 55.763269 236.060885 55.304936 237.102552 54.388269 C 238.149427 53.461186 239.118177 52.377852 240.008802 51.143477 C 239.722344 50.429935 239.592135 49.575769 239.60776 48.580977 C 239.623385 47.586185 239.722344 46.747644 239.904635 46.075769 C 240.008802 45.513268 240.383802 45.232018 241.024427 45.232018 Z M 241.024427 45.232018 " stroke="#000000" stroke-width="3.990998" stroke-opacity="1" stroke-miterlimit="4"/><path stroke-linecap="butt" transform="matrix(0.75, 0, 0, 0.75, 93.969973, 122.900207)" fill="none" stroke-linejoin="miter" d="M 251.941095 54.752852 C 252.430678 54.752852 252.868178 54.940352 253.23797 55.310144 C 253.61297 55.685144 253.795261 56.122644 253.795261 56.622644 C 253.795261 57.117436 253.61297 57.539311 253.23797 57.893478 C 252.868178 58.252853 252.430678 58.429936 251.941095 58.429936 C 251.435886 58.429936 251.008803 58.252853 250.654636 57.893478 C 250.300469 57.539311 250.118178 57.117436 250.118178 56.622644 C 250.118178 56.122644 250.300469 55.685144 250.654636 55.310144 C 251.008803 54.940352 251.435886 54.752852 251.941095 54.752852 Z M 251.941095 54.752852 " stroke="#000000" stroke-width="3.990998" stroke-opacity="1" stroke-miterlimit="4"/><g fill="#ffffff" fill-opacity="1"><g transform="translate(221.024652, 166.400204)"><g><path d="M 21.59375 -13.328125 C 21.800781 -13.222656 21.929688 -13.054688 21.984375 -12.828125 C 22.035156 -12.597656 22 -12.378906 21.875 -12.171875 C 21.125 -10.941406 20.328125 -9.722656 19.484375 -8.515625 C 18.648438 -7.304688 17.71875 -6.222656 16.6875 -5.265625 C 16.257812 -4.890625 15.804688 -4.519531 15.328125 -4.15625 L 16 -2.03125 L 16.328125 -1.125 C 16.378906 -0.90625 16.347656 -0.6875 16.234375 -0.46875 C 16.128906 -0.257812 15.972656 -0.117188 15.765625 -0.046875 C 15.546875 0.015625 15.332031 -0.00390625 15.125 -0.109375 C 14.914062 -0.222656 14.769531 -0.382812 14.6875 -0.59375 L 14.40625 -1.515625 L 13.84375 -3.234375 C 12.195312 -2.410156 10.441406 -2.007812 8.578125 -2.03125 C 6.878906 -2.03125 5.515625 -2.53125 4.484375 -3.53125 C 3.460938 -4.53125 2.953125 -5.878906 2.953125 -7.578125 C 2.984375 -8.753906 3.242188 -9.847656 3.734375 -10.859375 C 4.222656 -11.867188 4.984375 -12.890625 6.015625 -13.921875 C 7.054688 -14.960938 8.414062 -16.082031 10.09375 -17.28125 C 9.957031 -18.082031 9.84375 -18.851562 9.75 -19.59375 C 9.664062 -20.34375 9.625 -21.019531 9.625 -21.625 C 9.625 -23.382812 10.09375 -24.851562 11.03125 -26.03125 C 11.976562 -27.21875 13.207031 -27.8125 14.71875 -27.8125 C 15.789062 -27.8125 16.710938 -27.5 17.484375 -26.875 C 18.253906 -26.25 18.640625 -25.390625 18.640625 -24.296875 C 18.640625 -23.453125 18.414062 -22.648438 17.96875 -21.890625 C 17.53125 -21.128906 16.828125 -20.320312 15.859375 -19.46875 C 14.890625 -18.625 13.582031 -17.628906 11.9375 -16.484375 C 12.28125 -14.773438 12.707031 -12.984375 13.21875 -11.109375 C 13.738281 -9.234375 14.253906 -7.484375 14.765625 -5.859375 C 14.898438 -5.972656 15.03125 -6.082031 15.15625 -6.1875 C 15.289062 -6.289062 15.425781 -6.394531 15.5625 -6.5 C 16.488281 -7.40625 17.351562 -8.429688 18.15625 -9.578125 C 18.957031 -10.722656 19.71875 -11.878906 20.4375 -13.046875 C 20.5625 -13.265625 20.738281 -13.398438 20.96875 -13.453125 C 21.195312 -13.503906 21.40625 -13.460938 21.59375 -13.328125 Z M 11.328125 -21.546875 C 11.328125 -21.097656 11.347656 -20.59375 11.390625 -20.03125 C 11.429688 -19.46875 11.503906 -18.84375 11.609375 -18.15625 C 12.378906 -18.6875 13.175781 -19.289062 14 -19.96875 C 14.832031 -20.644531 15.53125 -21.351562 16.09375 -22.09375 C 16.664062 -22.84375 16.953125 -23.578125 16.953125 -24.296875 C 16.953125 -24.859375 16.734375 -25.304688 16.296875 -25.640625 C 15.859375 -25.972656 15.332031 -26.140625 14.71875 -26.140625 C 13.632812 -26.140625 12.796875 -25.691406 12.203125 -24.796875 C 11.617188 -23.910156 11.328125 -22.828125 11.328125 -21.546875 Z M 13.328125 -4.875 C 12.828125 -6.4375 12.316406 -8.140625 11.796875 -9.984375 C 11.273438 -11.835938 10.828125 -13.65625 10.453125 -15.4375 C 8.347656 -13.894531 6.859375 -12.53125 5.984375 -11.34375 C 5.109375 -10.164062 4.65625 -8.910156 4.625 -7.578125 C 4.625 -6.304688 4.988281 -5.34375 5.71875 -4.6875 C 6.457031 -4.039062 7.410156 -3.71875 8.578125 -3.71875 C 10.285156 -3.71875 11.867188 -4.101562 13.328125 -4.875 Z M 13.328125 -4.875 "/></g></g></g><g fill="#ffffff" fill-opacity="1"><g transform="translate(243.289992, 166.400204)"><g><path d="M 25.421875 -9.53125 C 25.921875 -9.289062 26.082031 -8.921875 25.90625 -8.421875 C 24.46875 -4.960938 22.722656 -2.238281 20.671875 -0.25 C 18.617188 1.726562 16.035156 2.71875 12.921875 2.71875 C 10.347656 2.71875 8.390625 1.972656 7.046875 0.484375 C 5.703125 -1.003906 5.03125 -2.988281 5.03125 -5.46875 C 5.03125 -6.6875 5.1875 -7.976562 5.5 -9.34375 C 5.820312 -10.71875 6.222656 -12.148438 6.703125 -13.640625 C 4.679688 -14.117188 3.054688 -15.03125 1.828125 -16.375 C 0.609375 -17.71875 0 -19.398438 0 -21.421875 C 0 -22.785156 0.257812 -24.15625 0.78125 -25.53125 C 1.300781 -26.914062 2 -28.144531 2.875 -29.21875 C 3.03125 -29.394531 3.242188 -29.484375 3.515625 -29.484375 C 3.722656 -29.484375 3.910156 -29.410156 4.078125 -29.265625 C 4.253906 -29.117188 4.34375 -28.914062 4.34375 -28.65625 C 4.34375 -28.414062 4.28125 -28.226562 4.15625 -28.09375 C 3.4375 -27.289062 2.84375 -26.265625 2.375 -25.015625 C 1.90625 -23.765625 1.671875 -22.597656 1.671875 -21.515625 C 1.671875 -19.722656 2.195312 -18.320312 3.25 -17.3125 C 4.300781 -16.300781 5.648438 -15.613281 7.296875 -15.25 C 7.859375 -16.84375 8.554688 -18.476562 9.390625 -20.15625 C 10.234375 -21.832031 11.191406 -23.375 12.265625 -24.78125 C 13.347656 -26.1875 14.519531 -27.316406 15.78125 -28.171875 C 17.039062 -29.023438 18.378906 -29.4375 19.796875 -29.40625 C 21.441406 -29.382812 22.675781 -28.835938 23.5 -27.765625 C 24.320312 -26.703125 24.734375 -25.390625 24.734375 -23.828125 C 24.734375 -22.148438 24.300781 -20.660156 23.4375 -19.359375 C 22.570312 -18.054688 21.421875 -16.941406 19.984375 -16.015625 C 18.554688 -15.097656 16.984375 -14.40625 15.265625 -13.9375 C 13.546875 -13.476562 11.835938 -13.25 10.140625 -13.25 C 9.847656 -13.25 9.566406 -13.257812 9.296875 -13.28125 C 9.035156 -13.3125 8.726562 -13.34375 8.375 -13.375 C 7.925781 -11.90625 7.535156 -10.507812 7.203125 -9.1875 C 6.867188 -7.875 6.703125 -6.632812 6.703125 -5.46875 C 6.703125 -3.34375 7.253906 -1.726562 8.359375 -0.625 C 9.460938 0.476562 10.984375 1.03125 12.921875 1.03125 C 15.691406 1.03125 17.960938 0.140625 19.734375 -1.640625 C 21.503906 -3.421875 23.039062 -5.894531 24.34375 -9.0625 C 24.425781 -9.269531 24.578125 -9.421875 24.796875 -9.515625 C 25.023438 -9.609375 25.234375 -9.613281 25.421875 -9.53125 Z M 8.984375 -14.96875 C 9.140625 -14.9375 9.300781 -14.921875 9.46875 -14.921875 C 9.644531 -14.921875 9.828125 -14.921875 10.015625 -14.921875 C 11.503906 -14.921875 13.003906 -15.117188 14.515625 -15.515625 C 16.035156 -15.921875 17.445312 -16.5 18.75 -17.25 C 20.0625 -18.007812 21.109375 -18.941406 21.890625 -20.046875 C 22.671875 -21.148438 23.0625 -22.410156 23.0625 -23.828125 C 23.0625 -24.972656 22.785156 -25.910156 22.234375 -26.640625 C 21.691406 -27.367188 20.878906 -27.734375 19.796875 -27.734375 C 18.617188 -27.734375 17.476562 -27.320312 16.375 -26.5 C 15.269531 -25.675781 14.242188 -24.617188 13.296875 -23.328125 C 12.359375 -22.035156 11.523438 -20.648438 10.796875 -19.171875 C 10.066406 -17.691406 9.460938 -16.289062 8.984375 -14.96875 Z M 8.984375 -14.96875 "/></g></g></g><g fill="#ffffff" fill-opacity="1"><g transform="translate(266.153869, 166.400204)"><g><path d="M 17.84375 -8.421875 C 16.957031 -6.398438 16.03125 -4.914062 15.0625 -3.96875 C 14.09375 -3.019531 13.007812 -2.546875 11.8125 -2.546875 C 10.664062 -2.546875 9.65625 -2.90625 8.78125 -3.625 C 8.03125 -2.644531 7.175781 -1.796875 6.21875 -1.078125 C 5.257812 -0.359375 4.304688 0 3.359375 0 C 2.046875 0 1.132812 -0.382812 0.625 -1.15625 C 0.125 -1.925781 -0.125 -2.882812 -0.125 -4.03125 C -0.125 -5.570312 0.0664062 -7.015625 0.453125 -8.359375 C 0.835938 -9.703125 1.296875 -10.910156 1.828125 -11.984375 C 2.367188 -13.066406 2.847656 -13.96875 3.265625 -14.6875 C 4.941406 -17.476562 6.820312 -18.875 8.90625 -18.875 C 10.226562 -18.84375 11.222656 -18.421875 11.890625 -17.609375 C 12.554688 -16.804688 12.890625 -15.804688 12.890625 -14.609375 C 12.890625 -13.785156 12.753906 -12.828125 12.484375 -11.734375 C 12.222656 -10.640625 11.859375 -9.515625 11.390625 -8.359375 C 10.921875 -7.203125 10.382812 -6.101562 9.78125 -5.0625 C 10.226562 -4.507812 10.90625 -4.234375 11.8125 -4.234375 C 12.664062 -4.234375 13.453125 -4.625 14.171875 -5.40625 C 14.890625 -6.1875 15.59375 -7.40625 16.28125 -9.0625 C 16.414062 -9.40625 16.671875 -9.578125 17.046875 -9.578125 C 17.335938 -9.578125 17.570312 -9.457031 17.75 -9.21875 C 17.9375 -8.976562 17.96875 -8.710938 17.84375 -8.421875 Z M 8.578125 -9.578125 C 8.867188 -9.578125 9.09375 -9.46875 9.25 -9.25 C 9.414062 -9.039062 9.457031 -8.789062 9.375 -8.5 C 9.320312 -8.34375 9.289062 -8.179688 9.28125 -8.015625 C 9.269531 -7.859375 9.25 -7.710938 9.21875 -7.578125 C 9.832031 -8.828125 10.316406 -10.085938 10.671875 -11.359375 C 11.035156 -12.640625 11.21875 -13.734375 11.21875 -14.640625 C 11.21875 -15.492188 10.992188 -16.132812 10.546875 -16.5625 C 10.109375 -16.988281 9.546875 -17.203125 8.859375 -17.203125 C 8.109375 -17.203125 7.378906 -16.890625 6.671875 -16.265625 C 5.972656 -15.640625 5.332031 -14.820312 4.75 -13.8125 C 4.40625 -13.25 3.984375 -12.46875 3.484375 -11.46875 C 2.992188 -10.476562 2.554688 -9.347656 2.171875 -8.078125 C 1.785156 -6.816406 1.59375 -5.492188 1.59375 -4.109375 C 1.59375 -3.390625 1.722656 -2.800781 1.984375 -2.34375 C 2.253906 -1.894531 2.710938 -1.671875 3.359375 -1.671875 C 4.097656 -1.671875 4.859375 -2.015625 5.640625 -2.703125 C 6.429688 -3.398438 7.160156 -4.210938 7.828125 -5.140625 C 7.609375 -5.679688 7.503906 -6.320312 7.515625 -7.0625 C 7.535156 -7.8125 7.609375 -8.4375 7.734375 -8.9375 C 7.816406 -9.363281 8.097656 -9.578125 8.578125 -9.578125 Z M 8.578125 -9.578125 "/></g></g></g><g fill="#000000" fill-opacity="1"><g transform="translate(280.966058, 166.400204)"><g><path d="M 1.953125 -2.4375 C 2.328125 -2.4375 2.65625 -2.296875 2.9375 -2.015625 C 3.21875 -1.734375 3.359375 -1.40625 3.359375 -1.03125 C 3.359375 -0.664062 3.21875 -0.347656 2.9375 -0.078125 C 2.65625 0.179688 2.328125 0.3125 1.953125 0.3125 C 1.578125 0.3125 1.253906 0.179688 0.984375 -0.078125 C 0.722656 -0.347656 0.59375 -0.664062 0.59375 -1.03125 C 0.59375 -1.40625 0.722656 -1.734375 0.984375 -2.015625 C 1.253906 -2.296875 1.578125 -2.4375 1.953125 -2.4375 Z M 1.953125 -2.4375 "/></g></g></g><g fill="#ffe0e9" fill-opacity="1"><g transform="translate(120.489702, 190.940978)"><g><path d="M 3.125 0.125 C 2.570312 0.125 2.035156 0.0507812 1.515625 -0.09375 C 1.003906 -0.25 0.59375 -0.445312 0.28125 -0.6875 L 0.828125 -1.90625 C 1.128906 -1.6875 1.484375 -1.507812 1.890625 -1.375 C 2.304688 -1.238281 2.71875 -1.171875 3.125 -1.171875 C 3.582031 -1.171875 3.921875 -1.238281 4.140625 -1.375 C 4.359375 -1.507812 4.46875 -1.691406 4.46875 -1.921875 C 4.46875 -2.085938 4.40625 -2.222656 4.28125 -2.328125 C 4.15625 -2.441406 3.988281 -2.53125 3.78125 -2.59375 C 3.582031 -2.664062 3.304688 -2.742188 2.953125 -2.828125 C 2.421875 -2.953125 1.984375 -3.078125 1.640625 -3.203125 C 1.304688 -3.328125 1.019531 -3.53125 0.78125 -3.8125 C 0.539062 -4.09375 0.421875 -4.460938 0.421875 -4.921875 C 0.421875 -5.328125 0.53125 -5.691406 0.75 -6.015625 C 0.96875 -6.347656 1.296875 -6.609375 1.734375 -6.796875 C 2.179688 -6.992188 2.722656 -7.09375 3.359375 -7.09375 C 3.804688 -7.09375 4.238281 -7.039062 4.65625 -6.9375 C 5.082031 -6.832031 5.457031 -6.679688 5.78125 -6.484375 L 5.28125 -5.25 C 4.632812 -5.613281 3.988281 -5.796875 3.34375 -5.796875 C 2.894531 -5.796875 2.5625 -5.722656 2.34375 -5.578125 C 2.132812 -5.429688 2.03125 -5.238281 2.03125 -5 C 2.03125 -4.757812 2.148438 -4.582031 2.390625 -4.46875 C 2.640625 -4.351562 3.019531 -4.238281 3.53125 -4.125 C 4.070312 -4 4.507812 -3.875 4.84375 -3.75 C 5.1875 -3.625 5.476562 -3.421875 5.71875 -3.140625 C 5.957031 -2.867188 6.078125 -2.503906 6.078125 -2.046875 C 6.078125 -1.648438 5.960938 -1.285156 5.734375 -0.953125 C 5.515625 -0.617188 5.179688 -0.351562 4.734375 -0.15625 C 4.296875 0.03125 3.757812 0.125 3.125 0.125 Z M 3.125 0.125 "/></g></g></g><g fill="#ffe0e9" fill-opacity="1"><g transform="translate(128.847944, 190.940978)"><g><path d="M 6.234375 -1.296875 L 6.234375 0 L 0.828125 0 L 0.828125 -6.984375 L 6.09375 -6.984375 L 6.09375 -5.6875 L 2.4375 -5.6875 L 2.4375 -4.171875 L 5.671875 -4.171875 L 5.671875 -2.90625 L 2.4375 -2.90625 L 2.4375 -1.296875 Z M 6.234375 -1.296875 "/></g></g></g><g fill="#ffe0e9" fill-opacity="1"><g transform="translate(137.535283, 190.940978)"><g><path d="M 0.828125 -6.984375 L 2.4375 -6.984375 L 2.4375 -1.3125 L 5.9375 -1.3125 L 5.9375 0 L 0.828125 0 Z M 0.828125 -6.984375 "/></g></g></g><g fill="#ffe0e9" fill-opacity="1"><g transform="translate(145.554458, 190.940978)"><g><path d="M 2.4375 -5.6875 L 2.4375 -3.84375 L 5.671875 -3.84375 L 5.671875 -2.546875 L 2.4375 -2.546875 L 2.4375 0 L 0.828125 0 L 0.828125 -6.984375 L 6.09375 -6.984375 L 6.09375 -5.6875 Z M 2.4375 -5.6875 "/></g></g></g><g fill="#ffe0e9" fill-opacity="1"><g transform="translate(153.922681, 190.940978)"><g><path d="M 0.515625 -3.421875 L 3.34375 -3.421875 L 3.34375 -2.1875 L 0.515625 -2.1875 Z M 0.515625 -3.421875 "/></g></g></g><g fill="#ffe0e9" fill-opacity="1"><g transform="translate(159.767825, 190.940978)"><g><path d="M 0.828125 -6.984375 L 4 -6.984375 C 4.757812 -6.984375 5.425781 -6.835938 6 -6.546875 C 6.582031 -6.253906 7.035156 -5.84375 7.359375 -5.3125 C 7.679688 -4.789062 7.84375 -4.179688 7.84375 -3.484375 C 7.84375 -2.785156 7.679688 -2.175781 7.359375 -1.65625 C 7.035156 -1.132812 6.582031 -0.726562 6 -0.4375 C 5.425781 -0.144531 4.757812 0 4 0 L 0.828125 0 Z M 3.921875 -1.328125 C 4.617188 -1.328125 5.171875 -1.519531 5.578125 -1.90625 C 5.992188 -2.300781 6.203125 -2.828125 6.203125 -3.484375 C 6.203125 -4.148438 5.992188 -4.675781 5.578125 -5.0625 C 5.171875 -5.457031 4.617188 -5.65625 3.921875 -5.65625 L 2.4375 -5.65625 L 2.4375 -1.328125 Z M 3.921875 -1.328125 "/></g></g></g><g fill="#ffe0e9" fill-opacity="1"><g transform="translate(170.000919, 190.940978)"><g><path d="M 6.234375 -1.296875 L 6.234375 0 L 0.828125 0 L 0.828125 -6.984375 L 6.09375 -6.984375 L 6.09375 -5.6875 L 2.4375 -5.6875 L 2.4375 -4.171875 L 5.671875 -4.171875 L 5.671875 -2.90625 L 2.4375 -2.90625 L 2.4375 -1.296875 Z M 6.234375 -1.296875 "/></g></g></g><g fill="#ffe0e9" fill-opacity="1"><g transform="translate(178.688261, 190.940978)"><g><path d="M 2.4375 -5.6875 L 2.4375 -3.84375 L 5.671875 -3.84375 L 5.671875 -2.546875 L 2.4375 -2.546875 L 2.4375 0 L 0.828125 0 L 0.828125 -6.984375 L 6.09375 -6.984375 L 6.09375 -5.6875 Z M 2.4375 -5.6875 "/></g></g></g><g fill="#ffe0e9" fill-opacity="1"><g transform="translate(187.056483, 190.940978)"><g><path d="M 6.234375 -1.296875 L 6.234375 0 L 0.828125 0 L 0.828125 -6.984375 L 6.09375 -6.984375 L 6.09375 -5.6875 L 2.4375 -5.6875 L 2.4375 -4.171875 L 5.671875 -4.171875 L 5.671875 -2.90625 L 2.4375 -2.90625 L 2.4375 -1.296875 Z M 6.234375 -1.296875 "/></g></g></g><g fill="#ffe0e9" fill-opacity="1"><g transform="translate(195.743824, 190.940978)"><g><path d="M 7.234375 -6.984375 L 7.234375 0 L 5.90625 0 L 2.421875 -4.234375 L 2.421875 0 L 0.828125 0 L 0.828125 -6.984375 L 2.15625 -6.984375 L 5.625 -2.734375 L 5.625 -6.984375 Z M 7.234375 -6.984375 "/></g></g></g><g fill="#ffe0e9" fill-opacity="1"><g transform="translate(205.797418, 190.940978)"><g><path d="M 3.125 0.125 C 2.570312 0.125 2.035156 0.0507812 1.515625 -0.09375 C 1.003906 -0.25 0.59375 -0.445312 0.28125 -0.6875 L 0.828125 -1.90625 C 1.128906 -1.6875 1.484375 -1.507812 1.890625 -1.375 C 2.304688 -1.238281 2.71875 -1.171875 3.125 -1.171875 C 3.582031 -1.171875 3.921875 -1.238281 4.140625 -1.375 C 4.359375 -1.507812 4.46875 -1.691406 4.46875 -1.921875 C 4.46875 -2.085938 4.40625 -2.222656 4.28125 -2.328125 C 4.15625 -2.441406 3.988281 -2.53125 3.78125 -2.59375 C 3.582031 -2.664062 3.304688 -2.742188 2.953125 -2.828125 C 2.421875 -2.953125 1.984375 -3.078125 1.640625 -3.203125 C 1.304688 -3.328125 1.019531 -3.53125 0.78125 -3.8125 C 0.539062 -4.09375 0.421875 -4.460938 0.421875 -4.921875 C 0.421875 -5.328125 0.53125 -5.691406 0.75 -6.015625 C 0.96875 -6.347656 1.296875 -6.609375 1.734375 -6.796875 C 2.179688 -6.992188 2.722656 -7.09375 3.359375 -7.09375 C 3.804688 -7.09375 4.238281 -7.039062 4.65625 -6.9375 C 5.082031 -6.832031 5.457031 -6.679688 5.78125 -6.484375 L 5.28125 -5.25 C 4.632812 -5.613281 3.988281 -5.796875 3.34375 -5.796875 C 2.894531 -5.796875 2.5625 -5.722656 2.34375 -5.578125 C 2.132812 -5.429688 2.03125 -5.238281 2.03125 -5 C 2.03125 -4.757812 2.148438 -4.582031 2.390625 -4.46875 C 2.640625 -4.351562 3.019531 -4.238281 3.53125 -4.125 C 4.070312 -4 4.507812 -3.875 4.84375 -3.75 C 5.1875 -3.625 5.476562 -3.421875 5.71875 -3.140625 C 5.957031 -2.867188 6.078125 -2.503906 6.078125 -2.046875 C 6.078125 -1.648438 5.960938 -1.285156 5.734375 -0.953125 C 5.515625 -0.617188 5.179688 -0.351562 4.734375 -0.15625 C 4.296875 0.03125 3.757812 0.125 3.125 0.125 Z M 3.125 0.125 "/></g></g></g><g fill="#ffe0e9" fill-opacity="1"><g transform="translate(214.155662, 190.940978)"><g><path d="M 6.234375 -1.296875 L 6.234375 0 L 0.828125 0 L 0.828125 -6.984375 L 6.09375 -6.984375 L 6.09375 -5.6875 L 2.4375 -5.6875 L 2.4375 -4.171875 L 5.671875 -4.171875 L 5.671875 -2.90625 L 2.4375 -2.90625 L 2.4375 -1.296875 Z M 6.234375 -1.296875 "/></g></g></g><g fill="#ffe0e9" fill-opacity="1"><g transform="translate(222.842997, 190.940978)"><g/></g></g><g fill="#ffe0e9" fill-opacity="1"><g transform="translate(227.660948, 190.940978)"><g><path d="M 3.125 0.125 C 2.570312 0.125 2.035156 0.0507812 1.515625 -0.09375 C 1.003906 -0.25 0.59375 -0.445312 0.28125 -0.6875 L 0.828125 -1.90625 C 1.128906 -1.6875 1.484375 -1.507812 1.890625 -1.375 C 2.304688 -1.238281 2.71875 -1.171875 3.125 -1.171875 C 3.582031 -1.171875 3.921875 -1.238281 4.140625 -1.375 C 4.359375 -1.507812 4.46875 -1.691406 4.46875 -1.921875 C 4.46875 -2.085938 4.40625 -2.222656 4.28125 -2.328125 C 4.15625 -2.441406 3.988281 -2.53125 3.78125 -2.59375 C 3.582031 -2.664062 3.304688 -2.742188 2.953125 -2.828125 C 2.421875 -2.953125 1.984375 -3.078125 1.640625 -3.203125 C 1.304688 -3.328125 1.019531 -3.53125 0.78125 -3.8125 C 0.539062 -4.09375 0.421875 -4.460938 0.421875 -4.921875 C 0.421875 -5.328125 0.53125 -5.691406 0.75 -6.015625 C 0.96875 -6.347656 1.296875 -6.609375 1.734375 -6.796875 C 2.179688 -6.992188 2.722656 -7.09375 3.359375 -7.09375 C 3.804688 -7.09375 4.238281 -7.039062 4.65625 -6.9375 C 5.082031 -6.832031 5.457031 -6.679688 5.78125 -6.484375 L 5.28125 -5.25 C 4.632812 -5.613281 3.988281 -5.796875 3.34375 -5.796875 C 2.894531 -5.796875 2.5625 -5.722656 2.34375 -5.578125 C 2.132812 -5.429688 2.03125 -5.238281 2.03125 -5 C 2.03125 -4.757812 2.148438 -4.582031 2.390625 -4.46875 C 2.640625 -4.351562 3.019531 -4.238281 3.53125 -4.125 C 4.070312 -4 4.507812 -3.875 4.84375 -3.75 C 5.1875 -3.625 5.476562 -3.421875 5.71875 -3.140625 C 5.957031 -2.867188 6.078125 -2.503906 6.078125 -2.046875 C 6.078125 -1.648438 5.960938 -1.285156 5.734375 -0.953125 C 5.515625 -0.617188 5.179688 -0.351562 4.734375 -0.15625 C 4.296875 0.03125 3.757812 0.125 3.125 0.125 Z M 3.125 0.125 "/></g></g></g><g fill="#ffe0e9" fill-opacity="1"><g transform="translate(236.019186, 190.940978)"><g><path d="M 2.265625 -5.65625 L 0.046875 -5.65625 L 0.046875 -6.984375 L 6.125 -6.984375 L 6.125 -5.65625 L 3.890625 -5.65625 L 3.890625 0 L 2.265625 0 Z M 2.265625 -5.65625 "/></g></g></g><g fill="#ffe0e9" fill-opacity="1"><g transform="translate(244.177976, 190.940978)"><g><path d="M 4.203125 0.125 C 3.484375 0.125 2.832031 -0.03125 2.25 -0.34375 C 1.664062 -0.65625 1.207031 -1.085938 0.875 -1.640625 C 0.550781 -2.191406 0.390625 -2.804688 0.390625 -3.484375 C 0.390625 -4.171875 0.550781 -4.785156 0.875 -5.328125 C 1.207031 -5.878906 1.664062 -6.3125 2.25 -6.625 C 2.832031 -6.9375 3.484375 -7.09375 4.203125 -7.09375 C 4.929688 -7.09375 5.582031 -6.9375 6.15625 -6.625 C 6.738281 -6.3125 7.195312 -5.878906 7.53125 -5.328125 C 7.863281 -4.785156 8.03125 -4.171875 8.03125 -3.484375 C 8.03125 -2.804688 7.863281 -2.191406 7.53125 -1.640625 C 7.195312 -1.085938 6.738281 -0.65625 6.15625 -0.34375 C 5.582031 -0.03125 4.929688 0.125 4.203125 0.125 Z M 4.203125 -1.25 C 4.617188 -1.25 4.992188 -1.34375 5.328125 -1.53125 C 5.660156 -1.726562 5.921875 -1.992188 6.109375 -2.328125 C 6.296875 -2.671875 6.390625 -3.054688 6.390625 -3.484375 C 6.390625 -3.921875 6.296875 -4.304688 6.109375 -4.640625 C 5.921875 -4.984375 5.660156 -5.25 5.328125 -5.4375 C 4.992188 -5.625 4.617188 -5.71875 4.203125 -5.71875 C 3.796875 -5.71875 3.425781 -5.625 3.09375 -5.4375 C 2.757812 -5.25 2.5 -4.984375 2.3125 -4.640625 C 2.125 -4.304688 2.03125 -3.921875 2.03125 -3.484375 C 2.03125 -3.054688 2.125 -2.671875 2.3125 -2.328125 C 2.5 -1.992188 2.757812 -1.726562 3.09375 -1.53125 C 3.425781 -1.34375 3.796875 -1.25 4.203125 -1.25 Z M 4.203125 -1.25 "/></g></g></g><g fill="#ffe0e9" fill-opacity="1"><g transform="translate(254.590577, 190.940978)"><g><path d="M 5.28125 0 L 3.921875 -1.9375 L 2.4375 -1.9375 L 2.4375 0 L 0.828125 0 L 0.828125 -6.984375 L 3.84375 -6.984375 C 4.46875 -6.984375 5.003906 -6.878906 5.453125 -6.671875 C 5.910156 -6.460938 6.257812 -6.164062 6.5 -5.78125 C 6.75 -5.40625 6.875 -4.960938 6.875 -4.453125 C 6.875 -3.929688 6.75 -3.484375 6.5 -3.109375 C 6.25 -2.734375 5.894531 -2.445312 5.4375 -2.25 L 7.015625 0 Z M 5.25 -4.453125 C 5.25 -4.835938 5.117188 -5.132812 4.859375 -5.34375 C 4.609375 -5.550781 4.242188 -5.65625 3.765625 -5.65625 L 2.4375 -5.65625 L 2.4375 -3.234375 L 3.765625 -3.234375 C 4.242188 -3.234375 4.609375 -3.335938 4.859375 -3.546875 C 5.117188 -3.765625 5.25 -4.066406 5.25 -4.453125 Z M 5.25 -4.453125 "/></g></g></g><g fill="#ffe0e9" fill-opacity="1"><g transform="translate(263.91616, 190.940978)"><g><path d="M 6.234375 -1.296875 L 6.234375 0 L 0.828125 0 L 0.828125 -6.984375 L 6.09375 -6.984375 L 6.09375 -5.6875 L 2.4375 -5.6875 L 2.4375 -4.171875 L 5.671875 -4.171875 L 5.671875 -2.90625 L 2.4375 -2.90625 L 2.4375 -1.296875 Z M 6.234375 -1.296875 "/></g></g></g><path stroke-linecap="butt" transform="matrix(0.75, 0, 0, 0.75, 48.540901, 180.749988)" fill="none" stroke-linejoin="miter" d="M 99.507971 13.161475 C 98.768388 13.161475 98.060055 13.057308 97.367346 12.859392 C 96.685055 12.661475 96.132971 12.401058 95.716305 12.08335 L 96.445471 10.45835 C 96.846513 10.755225 97.320471 10.9896 97.872555 11.166683 C 98.41943 11.343767 98.971513 11.432308 99.518388 11.432308 C 100.132971 11.432308 100.586097 11.338558 100.877763 11.161475 C 101.16943 10.979183 101.315263 10.734392 101.315263 10.432308 C 101.315263 10.20835 101.226722 10.026058 101.054847 9.880225 C 100.882972 9.734391 100.659013 9.619808 100.38818 9.531266 C 100.122555 9.442725 99.757971 9.343766 99.29443 9.234391 C 98.586096 9.067725 98.002763 8.901058 97.549638 8.729183 C 97.101721 8.562516 96.711096 8.291683 96.38818 7.916683 C 96.065263 7.546891 95.903805 7.0521 95.903805 6.432308 C 95.903805 5.890641 96.049638 5.401058 96.341305 4.958349 C 96.632971 4.520849 97.07568 4.171891 97.664221 3.916683 C 98.252763 3.661474 98.971513 3.531266 99.82568 3.531266 C 100.41943 3.531266 101.002763 3.604183 101.570472 3.744808 C 102.132972 3.885433 102.632972 4.088558 103.060055 4.354183 L 102.393388 5.9896 C 101.534013 5.500016 100.674638 5.260433 99.810055 5.260433 C 99.211096 5.260433 98.76318 5.354183 98.471513 5.5521 C 98.185055 5.744808 98.04443 6.005225 98.04443 6.322933 C 98.04443 6.640641 98.211096 6.880225 98.54443 7.036475 C 98.877763 7.192725 99.382971 7.343766 100.065263 7.494808 C 100.773597 7.661475 101.35693 7.828141 101.810055 8.000016 C 102.26318 8.166683 102.648597 8.432308 102.971513 8.796891 C 103.29443 9.161475 103.455888 9.651058 103.455888 10.27085 C 103.455888 10.807308 103.310055 11.291683 103.007972 11.729183 C 102.711097 12.171892 102.268388 12.52085 101.674638 12.776058 C 101.080888 13.031267 100.35693 13.161475 99.507971 13.161475 Z M 114.799639 11.27085 L 114.799639 13.000017 L 107.591305 13.000017 L 107.591305 3.692724 L 114.627764 3.692724 L 114.627764 5.416683 L 109.73193 5.416683 L 109.73193 7.442725 L 114.054847 7.442725 L 114.054847 9.1146 L 109.73193 9.1146 L 109.73193 11.27085 Z M 119.174639 3.692724 L 121.33089 3.692724 L 121.33089 11.244808 L 125.997557 11.244808 L 125.997557 13.000017 L 119.174639 13.000017 Z M 132.023599 5.416683 L 132.023599 7.880225 L 136.330891 7.880225 L 136.330891 9.609391 L 132.023599 9.609391 L 132.023599 13.000017 L 129.867348 13.000017 L 129.867348 3.692724 L 136.903807 3.692724 L 136.903807 5.416683 Z M 140.612141 8.4271 L 144.377766 8.4271 L 144.377766 10.088558 L 140.612141 10.088558 Z M 148.820475 3.692724 L 153.044433 3.692724 C 154.05485 3.692724 154.950683 3.885433 155.726725 4.270849 C 156.502767 4.656266 157.106934 5.197933 157.539225 5.901058 C 157.966309 6.598975 158.185059 7.411475 158.185059 8.343766 C 158.185059 9.276058 157.966309 10.088558 157.539225 10.791683 C 157.106934 11.494808 156.502767 12.036475 155.726725 12.421892 C 154.950683 12.807308 154.05485 13.000017 153.044433 13.000017 L 148.820475 13.000017 Z M 152.940267 11.229183 C 153.872558 11.229183 154.61735 10.973975 155.169433 10.453142 C 155.721517 9.932308 156.002767 9.229183 156.002767 8.343766 C 156.002767 7.45835 155.721517 6.755225 155.169433 6.2396 C 154.61735 5.718766 153.872558 5.45835 152.940267 5.45835 L 150.976725 5.45835 L 150.976725 11.229183 Z M 169.669434 11.27085 L 169.669434 13.000017 L 162.461101 13.000017 L 162.461101 3.692724 L 169.497559 3.692724 L 169.497559 5.416683 L 164.601726 5.416683 L 164.601726 7.442725 L 168.929851 7.442725 L 168.929851 9.1146 L 164.601726 9.1146 L 164.601726 11.27085 Z M 176.200685 5.416683 L 176.200685 7.880225 L 180.513185 7.880225 L 180.513185 9.609391 L 176.200685 9.609391 L 176.200685 13.000017 L 174.044435 13.000017 L 174.044435 3.692724 L 181.080893 3.692724 L 181.080893 5.416683 Z M 192.414228 11.27085 L 192.414228 13.000017 L 185.205894 13.000017 L 185.205894 3.692724 L 192.242353 3.692724 L 192.242353 5.416683 L 187.341311 5.416683 L 187.341311 7.442725 L 191.669436 7.442725 L 191.669436 9.1146 L 187.341311 9.1146 L 187.341311 11.27085 Z M 205.325687 3.692724 L 205.325687 13.000017 L 203.554853 13.000017 L 198.914228 7.348975 L 198.914228 13.000017 L 196.78402 13.000017 L 196.78402 3.692724 L 198.570478 3.692724 L 203.195478 9.343766 L 203.195478 3.692724 Z M 213.247562 13.161475 C 212.513187 13.161475 211.799645 13.057308 211.112145 12.859392 C 210.429854 12.661475 209.87777 12.401058 209.461104 12.08335 L 210.19027 10.45835 C 210.591312 10.755225 211.06527 10.9896 211.612145 11.166683 C 212.164229 11.343767 212.711104 11.432308 213.263187 11.432308 C 213.877771 11.432308 214.325687 11.338558 214.622562 11.161475 C 214.914229 10.979183 215.060062 10.734392 215.060062 10.432308 C 215.060062 10.20835 214.971521 10.026058 214.799646 9.880225 C 214.627771 9.734391 214.403812 9.619808 214.132979 9.531266 C 213.867354 9.442725 213.497562 9.343766 213.039229 9.234391 C 212.330896 9.067725 211.747562 8.901058 211.294437 8.729183 C 210.841312 8.562516 210.455895 8.291683 210.12777 7.916683 C 209.804854 7.546891 209.643395 7.0521 209.643395 6.432308 C 209.643395 5.890641 209.794437 5.401058 210.086104 4.958349 C 210.37777 4.520849 210.81527 4.171891 211.403812 3.916683 C 211.997562 3.661474 212.716312 3.531266 213.570479 3.531266 C 214.164229 3.531266 214.742354 3.604183 215.310062 3.744808 C 215.877771 3.885433 216.377771 4.088558 216.804854 4.354183 L 216.138187 5.9896 C 215.278812 5.500016 214.419437 5.260433 213.554854 5.260433 C 212.955896 5.260433 212.507979 5.354183 212.216312 5.5521 C 211.929854 5.744808 211.78402 6.005225 211.78402 6.322933 C 211.78402 6.640641 211.950687 6.880225 212.284021 7.036475 C 212.617354 7.192725 213.127771 7.343766 213.810062 7.494808 C 214.518396 7.661475 215.101729 7.828141 215.554854 8.000016 C 216.002771 8.166683 216.393396 8.432308 216.716312 8.796891 C 217.039229 9.161475 217.200688 9.651058 217.200688 10.27085 C 217.200688 10.807308 217.054854 11.291683 216.752771 11.729183 C 216.455896 12.171892 216.013187 12.52085 215.414229 12.776058 C 214.820479 13.031267 214.101729 13.161475 213.247562 13.161475 Z M 228.544438 11.27085 L 228.544438 13.000017 L 221.336104 13.000017 L 221.336104 3.692724 L 228.372563 3.692724 L 228.372563 5.416683 L 223.47673 5.416683 L 223.47673 7.442725 L 227.799647 7.442725 L 227.799647 9.1146 L 223.47673 9.1146 L 223.47673 11.27085 Z M 242.403814 13.161475 C 241.664231 13.161475 240.955897 13.057308 240.263189 12.859392 C 239.580897 12.661475 239.028814 12.401058 238.612147 12.08335 L 239.341314 10.45835 C 239.742356 10.755225 240.216314 10.9896 240.763189 11.166683 C 241.315272 11.343767 241.862147 11.432308 242.414231 11.432308 C 243.028814 11.432308 243.481939 11.338558 243.773606 11.161475 C 244.065273 10.979183 244.211106 10.734392 244.211106 10.432308 C 244.211106 10.20835 244.122564 10.026058 243.950689 9.880225 C 243.778814 9.734391 243.554856 9.619808 243.284023 9.531266 C 243.018398 9.442725 242.653814 9.343766 242.190272 9.234391 C 241.481939 9.067725 240.898606 8.901058 240.445481 8.729183 C 239.992356 8.562516 239.606939 8.291683 239.278814 7.916683 C 238.961106 7.546891 238.799647 7.0521 238.799647 6.432308 C 238.799647 5.890641 238.945481 5.401058 239.237147 4.958349 C 239.528814 4.520849 239.966314 4.171891 240.554856 3.916683 C 241.148606 3.661474 241.867356 3.531266 242.721523 3.531266 C 243.315273 3.531266 243.898606 3.604183 244.461106 3.744808 C 245.028814 3.885433 245.528814 4.088558 245.955898 4.354183 L 245.289231 5.9896 C 244.429856 5.500016 243.570481 5.260433 242.705898 5.260433 C 242.106939 5.260433 241.659022 5.354183 241.367356 5.5521 C 241.080897 5.744808 240.935064 6.005225 240.935064 6.322933 C 240.935064 6.640641 241.101731 6.880225 241.435064 7.036475 C 241.768397 7.192725 242.278814 7.343766 242.961106 7.494808 C 243.669439 7.661475 244.252773 7.828141 244.705898 8.000016 C 245.153814 8.166683 245.544439 8.432308 245.867356 8.796891 C 246.190273 9.161475 246.351731 9.651058 246.351731 10.27085 C 246.351731 10.807308 246.205898 11.291683 245.903814 11.729183 C 245.606939 12.171892 245.164231 12.52085 244.565273 12.776058 C 243.976731 13.031267 243.252773 13.161475 242.403814 13.161475 Z M 252.414231 5.442725 L 249.435065 5.442725 L 249.435065 3.692724 L 257.549648 3.692724 L 257.549648 5.442725 L 254.570482 5.442725 L 254.570482 13.000017 L 252.414231 13.000017 Z M 265.877774 13.161475 C 264.909024 13.161475 264.034024 12.953142 263.257982 12.536475 C 262.48194 12.119808 261.877774 11.541683 261.435065 10.812517 C 260.997565 10.078141 260.778815 9.255225 260.778815 8.343766 C 260.778815 7.432308 260.997565 6.609391 261.435065 5.880225 C 261.877774 5.145849 262.48194 4.572933 263.257982 4.156266 C 264.034024 3.739599 264.909024 3.531266 265.877774 3.531266 C 266.841316 3.531266 267.711107 3.739599 268.481941 4.156266 C 269.252774 4.572933 269.862149 5.145849 270.299649 5.880225 C 270.747566 6.609391 270.966316 7.432308 270.966316 8.343766 C 270.966316 9.255225 270.747566 10.078141 270.299649 10.812517 C 269.862149 11.541683 269.252774 12.119808 268.481941 12.536475 C 267.711107 12.953142 266.841316 13.161475 265.877774 13.161475 Z M 265.877774 11.322933 C 266.424649 11.322933 266.919441 11.197933 267.362149 10.942725 C 267.804858 10.692725 268.153816 10.338558 268.409024 9.890641 C 268.664233 9.437516 268.789233 8.921891 268.789233 8.343766 C 268.789233 7.765641 268.664233 7.255225 268.409024 6.8021 C 268.153816 6.348975 267.804858 5.994808 267.362149 5.744808 C 266.919441 5.494808 266.424649 5.3646 265.877774 5.3646 C 265.325691 5.3646 264.830899 5.494808 264.382982 5.744808 C 263.940274 5.994808 263.591316 6.348975 263.341316 6.8021 C 263.086107 7.255225 262.961107 7.765641 262.961107 8.343766 C 262.961107 8.921891 263.086107 9.437516 263.341316 9.890641 C 263.591316 10.338558 263.940274 10.692725 264.382982 10.942725 C 264.830899 11.197933 265.325691 11.322933 265.877774 11.322933 Z M 281.179858 13.000017 L 279.388192 10.406267 L 277.403816 10.406267 L 277.403816 13.000017 L 275.247566 13.000017 L 275.247566 3.692724 L 279.278817 3.692724 C 280.101733 3.692724 280.820483 3.828141 281.42465 4.104183 C 282.034025 4.380224 282.502775 4.770849 282.825692 5.276058 C 283.159025 5.781266 283.320484 6.375016 283.320484 7.067725 C 283.320484 7.760433 283.153817 8.359391 282.820483 8.859391 C 282.492358 9.359391 282.0184 9.7396 281.403817 10.005225 L 283.492359 13.000017 Z M 281.138192 7.067725 C 281.138192 6.546891 280.971525 6.14585 280.632983 5.8646 C 280.294442 5.58335 279.804858 5.442725 279.159025 5.442725 L 277.403816 5.442725 L 277.403816 8.692725 L 279.159025 8.692725 C 279.804858 8.692725 280.294442 8.546891 280.632983 8.265641 C 280.971525 7.984391 281.138192 7.58335 281.138192 7.067725 Z M 294.893401 11.27085 L 294.893401 13.000017 L 287.685067 13.000017 L 287.685067 3.692724 L 294.721526 3.692724 L 294.721526 5.416683 L 289.820484 5.416683 L 289.820484 7.442725 L 294.148609 7.442725 L 294.148609 9.1146 L 289.820484 9.1146 L 289.820484 11.27085 Z M 294.893401 11.27085 " stroke="#000000" stroke-width="0.498926" stroke-opacity="1" stroke-miterlimit="4"/><g fill="#ffe0e9" fill-opacity="1"><g transform="translate(272.610789, 190.940978)"><g/></g></g></svg>